<svg width="166" height="286" viewBox="0 0 166 286" fill="none" xmlns="http://www.w3.org/2000/svg">
<path fill-rule="evenodd" clip-rule="evenodd" d="M68.8451 4.91035C81.662 6.28011 109.459 18.5125 117.409 56.615C119.721 67.6973 119.872 77.5236 118.479 86.139C105.369 81.7276 93.909 81.105 84.2109 82.5708C70.7216 84.6097 60.6789 90.683 54.3714 96.1512C41.8134 107.038 38.6739 118.5 42.965 125.951C45.4743 130.308 51.1545 133.059 57.468 134.422C63.8078 135.79 70.9317 135.793 76.5091 134.525C87.2754 132.077 100.259 124.611 109.295 111.721C113.948 105.083 117.55 97.0156 119.267 87.4668C124.014 89.1306 128.981 91.2974 134.164 94.0495C155.809 105.545 163.862 130.4 160.041 157.279C156.222 184.149 140.541 212.913 114.9 232.004C78.2341 259.305 59.1896 262.226 36.1608 265.759C28.2067 266.979 19.7773 268.272 9.98232 270.668C13.8645 268.377 17.7667 265.073 21.0442 261.469C23.3435 258.941 25.3482 256.252 26.8313 253.639C28.3109 251.032 29.2885 248.471 29.4976 246.205L28.5018 246.113C28.3109 248.183 27.4051 250.602 25.9616 253.145C24.5216 255.682 22.5637 258.312 20.3044 260.796C15.7774 265.774 10.0919 270.109 5.02832 271.948L5.32979 272.9C17.1272 269.701 26.9611 268.192 36.1906 266.775C59.3015 263.227 78.6234 260.262 115.498 232.806C141.357 213.552 157.176 184.547 161.031 157.42C164.886 130.302 156.788 104.932 134.633 93.1663C129.349 90.3607 124.283 88.1559 119.439 86.4677C120.881 77.6882 120.739 67.6819 118.388 56.4108C110.337 17.8225 82.1345 5.32491 68.9514 3.91602L68.8451 4.91035ZM84.3604 83.5596C93.9264 82.1138 105.277 82.7271 118.31 87.1372C116.628 96.6159 113.067 104.598 108.477 111.147C99.5883 123.825 86.8218 131.155 76.2874 133.55C70.8648 134.783 63.8891 134.785 57.679 133.444C51.4427 132.098 46.1229 129.431 43.8315 125.452C39.9111 118.644 42.5845 107.693 55.0265 96.9068C61.219 91.5382 71.092 85.5651 84.3604 83.5596ZM12.7984 274.834L12.8023 274.834C21.8597 275.917 35.0733 277.496 44.8213 281.221L45.1782 280.287C35.2988 276.512 21.9095 274.913 12.8619 273.833H12.8617C10.8551 273.594 9.06207 273.379 7.56824 273.173L7.4312 274.163C8.95547 274.374 10.773 274.591 12.7984 274.834Z" fill="white"/>
<path d="M117.409 56.615L113.983 57.3298L113.983 57.3298L117.409 56.615ZM68.8451 4.91035L65.3649 4.53841L64.993 8.0186L68.4732 8.39054L68.8451 4.91035ZM118.479 86.139L117.363 89.4562L121.275 90.7728L121.934 86.6975L118.479 86.139ZM84.2109 82.5708L84.734 86.0315L84.734 86.0315L84.2109 82.5708ZM54.3714 96.1512L56.6641 98.7957L56.6641 98.7957L54.3714 96.1512ZM42.965 125.951L39.932 127.698L39.932 127.698L42.965 125.951ZM57.468 134.422L56.7294 137.843L56.7295 137.843L57.468 134.422ZM76.5091 134.525L77.285 137.938L77.285 137.938L76.5091 134.525ZM109.295 111.721L112.161 113.73L112.161 113.73L109.295 111.721ZM119.267 87.4668L120.424 84.1638L116.549 82.8055L115.822 86.8475L119.267 87.4668ZM134.164 94.0495L132.522 97.1407L132.522 97.1407L134.164 94.0495ZM160.041 157.279L163.506 157.772L163.506 157.772L160.041 157.279ZM114.9 232.004L112.81 229.197L112.81 229.197L114.9 232.004ZM36.1608 265.759L36.6915 269.218L36.6915 269.218L36.1608 265.759ZM9.98232 270.668L8.20335 267.654L10.8139 274.068L9.98232 270.668ZM21.0442 261.469L23.6334 263.824L23.6334 263.824L21.0442 261.469ZM26.8313 253.639L23.7874 251.911L23.7874 251.911L26.8313 253.639ZM29.4976 246.205L32.9828 246.527L33.3044 243.042L29.8192 242.72L29.4976 246.205ZM28.5018 246.113L28.8234 242.628L25.3382 242.307L25.0166 245.792L28.5018 246.113ZM25.9616 253.145L22.9177 251.418L22.9177 251.418L25.9616 253.145ZM20.3044 260.796L17.7152 258.441L17.7152 258.441L20.3044 260.796ZM5.02832 271.948L3.83403 268.658L0.678539 269.803L1.69145 273.004L5.02832 271.948ZM5.32979 272.9L1.99292 273.956L3.00583 277.157L6.2458 276.278L5.32979 272.9ZM36.1906 266.775L36.7216 270.234L36.7216 270.234L36.1906 266.775ZM115.498 232.806L117.588 235.613L117.588 235.613L115.498 232.806ZM161.031 157.42L164.497 157.913L164.497 157.913L161.031 157.42ZM134.633 93.1663L136.274 90.0752L136.274 90.0752L134.633 93.1663ZM119.439 86.4677L115.985 85.9004L115.508 88.8043L118.287 89.7727L119.439 86.4677ZM118.388 56.4108L121.814 55.696L121.814 55.696L118.388 56.4108ZM68.9514 3.91602L69.3233 0.435834L65.8431 0.0639036L65.4712 3.54407L68.9514 3.91602ZM118.31 87.1372L121.756 87.7485L122.281 84.7862L119.432 83.8219L118.31 87.1372ZM84.3604 83.5596L84.8835 87.0203L84.8835 87.0203L84.3604 83.5596ZM108.477 111.147L105.611 109.137L105.611 109.137L108.477 111.147ZM76.2874 133.55L77.0633 136.963L77.0633 136.963L76.2874 133.55ZM57.679 133.444L58.4176 130.023L58.4176 130.023L57.679 133.444ZM43.8315 125.452L40.7985 127.199L40.7985 127.199L43.8315 125.452ZM55.0265 96.9068L52.7338 94.2622L52.7338 94.2622L55.0265 96.9068ZM12.8023 274.834L13.2177 271.359L13.2142 271.358L12.8023 274.834ZM12.7984 274.834L12.3829 278.309L12.3865 278.309L12.7984 274.834ZM44.8213 281.221L43.5721 284.49L46.8416 285.739L48.0908 282.47L44.8213 281.221ZM45.1782 280.287L48.4477 281.536L49.6968 278.266L46.4273 277.017L45.1782 280.287ZM12.8619 273.833L13.2768 270.358L13.0701 270.333H12.8619V273.833ZM12.8617 273.833L12.4468 277.308L12.6535 277.333H12.8617V273.833ZM7.56824 273.173L8.04788 269.706L4.58091 269.226L4.10126 272.693L7.56824 273.173ZM7.4312 274.163L3.96422 273.684L3.48457 277.151L6.95149 277.63L7.4312 274.163ZM120.835 55.9002C112.531 16.0979 83.3161 2.93696 69.217 1.43017L68.4732 8.39054C80.0079 9.62326 106.388 20.9271 113.983 57.3298L120.835 55.9002ZM121.934 86.6975C123.401 77.6215 123.226 67.3621 120.835 55.9002L113.983 57.3298C116.215 68.0325 116.342 77.4258 115.024 85.5805L121.934 86.6975ZM84.734 86.0315C93.8627 84.6518 104.761 85.2159 117.363 89.4562L119.595 82.8218C105.977 78.2393 93.9553 77.5583 83.6879 79.1102L84.734 86.0315ZM56.6641 98.7957C62.5695 93.6761 72.0181 87.9535 84.734 86.0315L83.6879 79.1102C69.4252 81.2659 58.7882 87.6899 52.0787 93.5066L56.6641 98.7957ZM45.9979 124.204C43.0056 119.008 44.5088 109.334 56.6641 98.7957L52.0787 93.5066C39.118 104.743 34.3422 117.991 39.932 127.698L45.9979 124.204ZM58.2065 131.001C52.1628 129.696 47.7442 127.236 45.9979 124.204L39.932 127.698C43.2044 133.38 50.1462 136.422 56.7294 137.843L58.2065 131.001ZM75.7332 131.112C70.6973 132.257 64.0923 132.271 58.2065 131.001L56.7295 137.843C63.5233 139.31 71.1662 139.329 77.285 137.938L75.7332 131.112ZM106.43 109.711C97.9117 121.862 85.6879 128.849 75.7332 131.112L77.285 137.938C88.8629 135.306 102.606 127.36 112.161 113.73L106.43 109.711ZM115.822 86.8475C114.197 95.8829 110.799 103.479 106.43 109.711L112.161 113.73C117.098 106.688 120.902 98.1483 122.712 88.0862L115.822 86.8475ZM135.805 90.9584C130.476 88.1285 125.348 85.8893 120.424 84.1638L118.109 90.7699C122.68 92.3718 127.486 94.4662 132.522 97.1407L135.805 90.9584ZM163.506 157.772C167.446 130.056 159.233 103.4 135.805 90.9584L132.522 97.1407C152.386 107.69 160.278 130.744 156.576 156.787L163.506 157.772ZM116.991 234.811C143.398 215.149 159.559 185.542 163.506 157.772L156.576 156.787C152.885 182.756 137.683 210.677 112.81 229.197L116.991 234.811ZM36.6915 269.218C48.192 267.454 59.0426 265.799 71.6457 261.071C84.2557 256.342 98.4718 248.6 116.991 234.811L112.81 229.197C94.6626 242.709 81.0233 250.078 69.1874 254.517C57.3445 258.959 47.1585 260.531 35.6301 262.299L36.6915 269.218ZM10.8139 274.068C20.4427 271.713 28.7337 270.439 36.6915 269.218L35.6301 262.299C27.6798 263.519 19.112 264.832 9.15077 267.268L10.8139 274.068ZM18.455 259.114C15.3698 262.506 11.7333 265.57 8.20335 267.654L11.7613 273.682C15.9958 271.183 20.1636 267.639 23.6334 263.824L18.455 259.114ZM23.7874 251.911C22.4551 254.259 20.6142 256.74 18.455 259.114L23.6334 263.824C26.0727 261.142 28.2413 258.245 29.8752 255.367L23.7874 251.911ZM26.0124 245.884C25.8668 247.461 25.1403 249.528 23.7874 251.911L29.8752 255.367C31.4816 252.536 32.7102 249.481 32.9828 246.527L26.0124 245.884ZM28.1802 249.599L29.176 249.691L29.8192 242.72L28.8234 242.628L28.1802 249.599ZM29.0055 254.873C30.5757 252.107 31.7326 249.192 31.987 246.435L25.0166 245.792C24.8892 247.173 24.2344 249.098 22.9177 251.418L29.0055 254.873ZM22.8937 263.151C25.2929 260.513 27.4147 257.676 29.0055 254.873L22.9177 251.418C21.6285 253.689 19.8345 256.111 17.7152 258.441L22.8937 263.151ZM6.22261 275.238C12.0079 273.137 18.1463 268.371 22.8937 263.151L17.7152 258.441C13.4085 263.177 8.17582 267.082 3.83403 268.658L6.22261 275.238ZM8.66667 271.844L8.36519 270.892L1.69145 273.004L1.99292 273.956L8.66667 271.844ZM35.6596 263.315C26.4289 264.732 16.4207 266.266 4.41378 269.522L6.2458 276.278C17.8337 273.136 27.4932 271.651 36.7216 270.234L35.6596 263.315ZM113.407 229.999C95.1579 243.587 81.3977 251.006 69.4554 255.478C57.5056 259.953 47.2285 261.54 35.6596 263.315L36.7216 270.234C48.2636 268.463 59.2028 266.792 71.9103 262.034C84.6252 257.272 98.963 249.481 117.588 235.613L113.407 229.999ZM157.566 156.927C153.839 183.154 138.5 211.316 113.407 229.999L117.588 235.613C144.215 215.788 160.513 185.94 164.497 157.913L157.566 156.927ZM132.991 96.2575C153.363 107.076 161.302 130.644 157.566 156.927L164.497 157.913C168.47 129.96 160.212 102.787 136.274 90.0752L132.991 96.2575ZM118.287 89.7727C122.953 91.3987 127.856 93.5304 132.991 96.2575L136.274 90.0752C130.843 87.1909 125.613 84.913 120.59 83.1626L118.287 89.7727ZM114.961 57.1256C117.233 68.0142 117.351 77.5844 115.985 85.9004L122.892 87.0349C124.41 77.792 124.245 67.3497 121.814 55.696L114.961 57.1256ZM68.5794 7.3962C80.481 8.66814 107.266 20.2377 114.961 57.1256L121.814 55.696C113.409 15.4073 83.788 1.98169 69.3233 0.435834L68.5794 7.3962ZM72.3253 5.2823L72.4316 4.28796L65.4712 3.54407L65.3649 4.53841L72.3253 5.2823ZM119.432 83.8219C105.889 79.2392 93.9747 78.5667 83.8373 80.0989L84.8835 87.0203C93.878 85.6608 104.665 86.2151 117.188 90.4526L119.432 83.8219ZM111.342 113.156C116.218 106.201 119.983 97.744 121.756 87.7485L114.864 86.5259C113.274 95.4878 109.917 102.995 105.611 109.137L111.342 113.156ZM77.0633 136.963C88.4093 134.383 101.935 126.574 111.342 113.156L105.611 109.137C97.241 121.076 85.2343 127.926 75.5115 130.137L77.0633 136.963ZM56.9405 136.866C63.6046 138.304 71.0992 138.319 77.0633 136.963L75.5115 130.137C70.6303 131.247 64.1735 131.266 58.4176 130.023L56.9405 136.866ZM40.7985 127.199C43.8527 132.502 50.4336 135.461 56.9405 136.866L58.4176 130.023C52.4518 128.735 48.393 126.359 46.8645 123.705L40.7985 127.199ZM52.7338 94.2622C39.8822 105.404 35.5823 118.141 40.7985 127.199L46.8645 123.705C44.2399 119.148 45.2867 109.983 57.3191 99.5513L52.7338 94.2622ZM83.8373 80.0989C69.7956 82.2213 59.3284 88.545 52.7338 94.2622L57.3191 99.5513C63.1096 94.5313 72.3884 88.9089 84.8835 87.0203L83.8373 80.0989ZM13.2142 271.358L13.2103 271.358L12.3865 278.309L12.3903 278.31L13.2142 271.358ZM46.0704 277.951C35.8384 274.042 22.1585 272.428 13.2177 271.359L12.3868 278.309C21.5608 279.406 34.3082 280.951 43.5721 284.49L46.0704 277.951ZM41.9087 279.037L41.5518 279.972L48.0908 282.47L48.4477 281.536L41.9087 279.037ZM12.4469 277.308C21.6101 278.402 34.5336 279.966 43.929 283.556L46.4273 277.017C36.064 273.058 22.209 271.424 13.2768 270.358L12.4469 277.308ZM12.8617 277.333H12.8619V270.333H12.8617V277.333ZM7.0886 276.64C8.62168 276.852 10.4507 277.07 12.4468 277.308L13.2766 270.358C11.2595 270.117 9.50246 269.907 8.04788 269.706L7.0886 276.64ZM10.8982 274.643L11.0352 273.652L4.10126 272.693L3.96422 273.684L10.8982 274.643ZM13.2139 271.358C11.178 271.115 9.39624 270.902 7.91091 270.696L6.95149 277.63C8.5147 277.847 10.3679 278.068 12.3829 278.309L13.2139 271.358Z" fill="white"/>
</svg>
